<svg xmlns="http://www.w3.org/2000/svg" viewBox="0 0 420 280">
  <defs>
    <linearGradient id="a" x1="0" y1="0" x2="1" y2="1">
      <stop offset="0" stop-color="#6366f1"/>
      <stop offset="1" stop-color="#4f46e5"/>
    </linearGradient>
    <linearGradient id="b" x1="0" y1="0" x2="1" y2="1">
      <stop offset="0" stop-color="#e0e7ff"/>
      <stop offset="1" stop-color="#c7d2fe"/>
    </linearGradient>
  </defs>
  <rect width="420" height="280" rx="16" fill="#ffffff"/>
  <rect x="14" y="14" width="392" height="252" rx="12" fill="none" stroke="#e2e8f0" stroke-width="2"/>
  <rect x="24" y="24" width="70" height="10" rx="5" fill="#6366f1" opacity="0.35"/>
  <rect x="100" y="24" width="44" height="10" rx="5" fill="#cbd5e1"/>
  <rect x="152" y="24" width="36" height="10" rx="5" fill="#cbd5e1"/>
  <rect x="24" y="52" width="300" height="16" rx="8" fill="#1e293b"/>
  <rect x="24" y="80" width="372" height="120" rx="10" fill="url(#b)"/>
  <rect x="24" y="80" width="372" height="120" rx="10" fill="url(#a)" opacity="0.06"/>
  <circle cx="70" cy="140" r="34" fill="url(#a)" opacity="0.25"/>
  <circle cx="210" cy="140" r="46" fill="#6366f1" opacity="0.35"/>
  <circle cx="350" cy="140" r="30" fill="url(#a)" opacity="0.25"/>
  <rect x="24" y="216" width="160" height="12" rx="6" fill="#94a3b8"/>
  <rect x="24" y="236" width="120" height="12" rx="6" fill="#cbd5e1"/>
  <text x="210" y="146" font-family="Arial, sans-serif" font-size="16" font-weight="700" fill="#ffffff" text-anchor="middle">E-LEARNING MODULE</text>
</svg>